<?xml version="1.0" encoding="UTF-8" standalone="no"?>
<svg
   width="73"
   height="40"
   viewBox="0 0 73 40"
   version="1.1"
   id="svg8"
   sodipodi:docname="_FONT_ICON_CLR_TARE1.svg"
   style="fill:none"
   inkscape:version="1.2.2 (732a01da63, 2022-12-09)"
   xmlns:inkscape="http://www.inkscape.org/namespaces/inkscape"
   xmlns:sodipodi="http://sodipodi.sourceforge.net/DTD/sodipodi-0.dtd"
   xmlns="http://www.w3.org/2000/svg"
   xmlns:svg="http://www.w3.org/2000/svg"
   xmlns:rdf="http://www.w3.org/1999/02/22-rdf-syntax-ns#"
   xmlns:cc="http://creativecommons.org/ns#"
   xmlns:dc="http://purl.org/dc/elements/1.1/">
  <metadata
     id="metadata14">
    <rdf:RDF>
      <cc:Work
         rdf:about="">
        <dc:format>image/svg+xml</dc:format>
        <dc:type
           rdf:resource="http://purl.org/dc/dcmitype/StillImage" />
      </cc:Work>
    </rdf:RDF>
  </metadata>
  <defs
     id="defs12" />
  <sodipodi:namedview
     pagecolor="#ffffff"
     bordercolor="#666666"
     borderopacity="1"
     objecttolerance="10"
     gridtolerance="10"
     guidetolerance="10"
     inkscape:pageopacity="0"
     inkscape:pageshadow="2"
     inkscape:window-width="1798"
     inkscape:window-height="1080"
     id="namedview10"
     showgrid="false"
     inkscape:zoom="5.9"
     inkscape:cx="27.372881"
     inkscape:cy="33.474576"
     inkscape:window-x="4367"
     inkscape:window-y="189"
     inkscape:window-maximized="0"
     inkscape:current-layer="svg8"
     inkscape:showpageshadow="2"
     inkscape:pagecheckerboard="0"
     inkscape:deskcolor="#d1d1d1" />
  <g
     transform="matrix(0.02252912,0,0,-0.02252912,-2.2004349,33.669648)"
     id="g12">
    <path
       fill="currentColor"
       d="M 1243,1021 H 903 V 5 H 662 V 1021 H 324 v 186 h 921 z M 1891,5 h -241 v 988 h -244 v 170 l 485,44 z m 1038,955 h 194 V 849 h -665 v 111 h 194 q 0,23 16.5,39 16.5,16 38.5,16 h 166 q 23,0 39.5,-16 16.5,-16 16.5,-39 z m 57,-721 26,553 h 56 l -29,-609 h -497 l -29,609 h 56 l 26,-553 z m -300,83 v 388 h 56 V 322 Z m 153,0 v 388 h 55 V 322 Z"
       id="path10" />
  </g>
</svg>
