<?xml version="1.0" encoding="UTF-8" standalone="no"?>
<!DOCTYPE svg PUBLIC "-//W3C//DTD SVG 1.1//EN" "http://www.w3.org/Graphics/SVG/1.1/DTD/svg11.dtd">
<!-- Generiert durch Microsoft Visio, SVG Export DifferentOfPrintProfiles_EN.svg Zeichenblatt-1 -->
<svg xmlns="http://www.w3.org/2000/svg" xmlns:xlink="http://www.w3.org/1999/xlink" xmlns:ev="http://www.w3.org/2001/xml-events"
		width="8.94742in" height="2.90412in" viewBox="0 0 644.215 209.096" xml:space="preserve" color-interpolation-filters="sRGB"
		class="st5">
	<style type="text/css">
	<![CDATA[
		.st1 {fill:none;stroke:#000000;stroke-linecap:round;stroke-linejoin:round;stroke-width:0.75}
		.st2 {fill:#000000;font-family:Arial;font-size:0.666664em}
		.st3 {font-size:1em}
		.st4 {stroke:#000000;stroke-linecap:round;stroke-linejoin:round;stroke-width:0.75}
		.st5 {fill:none;fill-rule:evenodd;font-size:12px;overflow:visible;stroke-linecap:square;stroke-miterlimit:3}
	]]>
	</style>

	<g>
		<title>Zeichenblatt-1</title>
		<g id="shape2-1" transform="translate(322.107,-171.871)">
			<title>Rechteck</title>
			<desc>Print profile</desc>
			<rect x="0" y="172.246" width="62.3622" height="36.8504" class="st1"/>
			<text x="10.95" y="193.07" class="st2">Print profile</text>		</g>
		<g id="shape11-4" transform="translate(123.682,-115.178)">
			<title>Rechteck.11</title>
			<desc>Printing from the print memory</desc>
			<rect x="0" y="172.246" width="62.3622" height="36.8504" class="st1"/>
			<text x="8.51" y="183.47" class="st2">Printing from <tspan x="16.73" dy="1.2em" class="st3">the print </tspan><tspan
						x="16.74" dy="1.2em" class="st3">memory</tspan></text>		</g>
		<g id="shape12-9" transform="translate(438.433,-115.178)">
			<title>Rechteck.12</title>
			<desc>Printing with direct output</desc>
			<rect x="0" y="172.246" width="62.3622" height="36.8504" class="st1"/>
			<text x="9.39" y="188.27" class="st2">Printing with <tspan x="9.17" dy="1.2em" class="st3">direct output</tspan></text>		</g>
		<g id="shape13-13" transform="translate(34.3907,-58.4852)">
			<title>Rechteck.13</title>
			<desc>YDP30 USB printer</desc>
			<rect x="0" y="172.246" width="62.3622" height="36.8504" class="st1"/>
			<text x="9.17" y="188.27" class="st2">YDP30 USB <tspan x="19.84" dy="1.2em" class="st3">printer </tspan></text>		</g>
		<g id="shape14-17" transform="translate(369.976,-57.0679)">
			<title>Rechteck.14</title>
			<desc>YDP30 USB printer</desc>
			<rect x="0" y="172.246" width="62.3622" height="36.8504" class="st1"/>
			<text x="9.17" y="188.27" class="st2">YDP30 USB <tspan x="19.84" dy="1.2em" class="st3">printer</tspan></text>		</g>
		<g id="shape19-21" transform="translate(0.375,-0.375)">
			<title>Rechteck.19</title>
			<desc>Strip paper</desc>
			<rect x="0" y="172.246" width="62.3622" height="36.8504" class="st1"/>
			<text x="11.62" y="193.07" class="st2">Strip paper</text>		</g>
		<g id="shape20-24" transform="translate(68.4065,-0.375)">
			<title>Rechteck.20</title>
			<desc>Label paper</desc>
			<rect x="0" y="172.246" width="62.3622" height="36.8504" class="st1"/>
			<text x="10.05" y="193.07" class="st2">Label paper</text>		</g>
		<g id="shape21-27" transform="translate(231.399,-58.4852)">
			<title>Rechteck.21</title>
			<desc>Print to file</desc>
			<rect x="0" y="172.246" width="62.3622" height="36.8504" class="st1"/>
			<text x="12.29" y="193.07" class="st2">Print to file</text>		</g>
		<g id="shape22-30" transform="translate(162.942,-0.375)">
			<title>Rechteck.22</title>
			<desc>PDF to connector</desc>
			<rect x="0" y="172.246" width="62.3622" height="36.8504" class="st1"/>
			<text x="18.73" y="188.27" class="st2">PDF to <tspan x="13.61" dy="1.2em" class="st3">connector</tspan></text>		</g>
		<g id="shape23-34" transform="translate(231.399,-0.375)">
			<title>Rechteck.23</title>
			<desc>CSV to connector</desc>
			<rect x="0" y="172.246" width="62.3622" height="36.8504" class="st1"/>
			<text x="18.51" y="188.27" class="st2">CSV to <tspan x="13.61" dy="1.2em" class="st3">connector</tspan></text>		</g>
		<g id="shape27-38" transform="translate(438.433,-57.0679)">
			<title>Rechteck.27</title>
			<desc>PC-Direct to USB-B</desc>
			<rect x="0" y="172.246" width="62.3622" height="36.8504" class="st1"/>
			<text x="13.85" y="188.27" class="st2">PC-Direct <tspan x="14.51" dy="1.2em" class="st3">to USB</tspan>-B</text>		</g>
		<g id="shape28-42" transform="translate(506.89,-57.0679)">
			<title>Rechteck.28</title>
			<desc>SBI direct to interfaces</desc>
			<rect x="0" y="172.246" width="62.3622" height="36.8504" class="st1"/>
			<text x="13.84" y="188.27" class="st2">SBI direct <tspan x="9.39" dy="1.2em" class="st3">to interfaces</tspan></text>		</g>
		<g id="shape33-46" transform="translate(353.288,-171.871)">
			<title>Universeller Verbinder</title>
			<path d="M0 209.1 L0 221 L-99.21 221 L-198.43 221 L-198.43 228.94" class="st4"/>
		</g>
		<g id="shape34-49" transform="translate(353.288,-171.871)">
			<title>Universeller Verbinder.34</title>
			<path d="M0 209.1 L0 221 L58.16 221 L116.33 221 L116.33 228.94" class="st4"/>
		</g>
		<g id="shape35-52" transform="translate(154.863,-115.178)">
			<title>Universeller Verbinder.35</title>
			<path d="M0 209.1 L0 219.02 L-44.65 219.02 L-89.29 219.02 L-89.29 228.94" class="st4"/>
		</g>
		<g id="shape36-55" transform="translate(154.863,-115.178)">
			<title>Universeller Verbinder.36</title>
			<path d="M0 209.1 L0 219.02 L53.86 219.02 L107.72 219.02 L107.72 228.94" class="st4"/>
		</g>
		<g id="shape37-58" transform="translate(469.614,-115.178)">
			<title>Universeller Verbinder.37</title>
			<path d="M0 209.1 L0 219.73 L-34.23 219.73 L-68.46 219.73 L-68.46 230.36" class="st4"/>
		</g>
		<g id="shape38-61" transform="translate(469.614,-115.178)">
			<title>Universeller Verbinder.38</title>
			<path d="M0 209.1 L0 219.73 L0 230.36" class="st4"/>
		</g>
		<g id="shape39-64" transform="translate(469.614,-115.178)">
			<title>Universeller Verbinder.39</title>
			<path d="M0 209.1 L0 219.73 L34.23 219.73 L68.46 219.73 L68.46 230.36" class="st4"/>
		</g>
		<g id="shape40-67" transform="translate(262.58,-58.4852)">
			<title>Universeller Verbinder.40</title>
			<path d="M0 209.1 L0 219.73 L0 230.36" class="st4"/>
		</g>
		<g id="shape41-70" transform="translate(262.58,-58.4852)">
			<title>Universeller Verbinder.41</title>
			<path d="M0 209.1 L0 219.73 L-34.23 219.73 L-68.46 219.73 L-68.46 230.36" class="st4"/>
		</g>
		<g id="shape42-73" transform="translate(65.5719,-58.4852)">
			<title>Universeller Verbinder.42</title>
			<path d="M0 209.1 L0 219.73 L17.01 219.73 L34.02 219.73 L34.02 230.36" class="st4"/>
		</g>
		<g id="shape43-76" transform="translate(65.5719,-58.4852)">
			<title>Universeller Verbinder.43</title>
			<path d="M0 209.1 L0 219.73 L-17.01 219.73 L-34.02 219.73 L-34.02 230.36" class="st4"/>
		</g>
		<g id="shape44-79" transform="translate(581.477,-115.178)">
			<title>Rechteck.44</title>
			<desc>Printing with data transfer</desc>
			<rect x="0" y="172.246" width="62.3622" height="36.8504" class="st1"/>
			<text x="9.39" y="188.27" class="st2">Printing with <tspan x="8.72" dy="1.2em" class="st3">data transfer</tspan></text>		</g>
		<g id="shape45-83" transform="translate(581.477,-57.0679)">
			<title>Rechteck.45</title>
			<desc>Data file to HTTP / HTTPS connector</desc>
			<rect x="0" y="172.246" width="62.3622" height="36.8504" class="st1"/>
			<text x="12.06" y="183.47" class="st2">Data file to <tspan x="4.29" dy="1.2em" class="st3">HTTP / HTTPS </tspan><tspan
						x="13.61" dy="1.2em" class="st3">connector</tspan></text>		</g>
		<g id="shape46-88" transform="translate(605.572,-115.178)">
			<title>Dynamischer Verbinder</title>
			<path d="M7.09 209.1 L7.09 230.36" class="st4"/>
		</g>
		<g id="shape47-91" transform="translate(353.288,-171.871)">
			<title>Dynamischer Verbinder.47</title>
			<path d="M0 209.1 L0 221 L259.37 221 L259.37 228.94" class="st4"/>
		</g>
		<g id="shape48-94" transform="translate(299.43,-0.375)">
			<title>Rechteck.48</title>
			<desc>Text to connector</desc>
			<rect x="0" y="172.246" width="62.3622" height="36.8504" class="st1"/>
			<text x="18.95" y="188.27" class="st2">Text to <tspan x="13.61" dy="1.2em" class="st3">connector</tspan></text>		</g>
		<g id="shape49-98" transform="translate(262.58,-58.4852)">
			<title>Dynamischer Verbinder.49</title>
			<path d="M0 209.1 L0 219.73 L68.03 219.73 L68.03 230.36" class="st4"/>
		</g>
	</g>
</svg>
