<svg width="24" height="24" viewBox="0 0 24 24" fill="none" xmlns="http://www.w3.org/2000/svg">
<path d="M19.524 12L23.4 14.4V9.6L19.524 12Z" fill="black"/>
<path d="M0.719971 14.4L4.59595 12L0.719971 9.6V14.4Z" fill="black"/>
<path d="M17.3399 13.824C17.3399 15.884 16.868 17.4439 15.924 18.5039C15.4218 19.0119 14.8237 19.4152 14.1646 19.6904C13.5055 19.9657 12.7982 20.1073 12.0839 20.1073C11.3696 20.1073 10.6624 19.9657 10.0033 19.6904C9.34412 19.4152 8.7462 19.0119 8.24399 18.5039C7.29599 17.4419 6.82793 15.882 6.82793 13.824V10.3979C6.82793 8.3539 7.29799 6.79402 8.23799 5.71802C8.74009 5.21098 9.33765 4.80838 9.99624 4.53369C10.6548 4.259 11.3614 4.11768 12.075 4.11768C12.7886 4.11768 13.495 4.259 14.1536 4.53369C14.8122 4.80838 15.4099 5.21098 15.912 5.71802C16.868 6.79002 17.3439 8.3499 17.3399 10.3979V13.824ZM14.232 10.074C14.2977 9.14052 14.1069 8.20683 13.68 7.37402C13.5131 7.10175 13.2767 6.87866 12.9952 6.72788C12.7137 6.5771 12.3971 6.50396 12.0779 6.51592C11.7594 6.50334 11.4433 6.57569 11.1618 6.72539C10.8803 6.87509 10.6436 7.09686 10.476 7.36802C10.051 8.20349 9.86228 9.13914 9.93003 10.074V14.118C9.86277 15.0613 10.0535 16.0049 10.482 16.8479C10.6506 17.1209 10.8892 17.344 11.1729 17.4938C11.4567 17.6436 11.7754 17.7147 12.0959 17.7C12.4132 17.7149 12.7286 17.6435 13.0085 17.4935C13.2885 17.3434 13.5227 17.1203 13.686 16.8479C14.1121 16.0042 14.3008 15.0607 14.232 14.118V10.074Z" fill="black"/>
</svg>
